#extradata 0:        2, 0x00b200a1
#tb 0: 1/48000
#media_type 0: audio
#codec_id 0: aac
#sample_rate 0: 48000
#channel_layout_name 0: stereo
0,      -2112,      -2112,     1024,        6, 0x027e00e8
0,      -1088,      -1088,     1024,      196, 0x2cc35746
0,        -64,        -64,     1024,      573, 0x5d611578
0,        960,        960,     1024,      393, 0x3218bde3
0,       1984,       1984,     1024,      420, 0xaa29d3cf
0,       3008,       3008,     1024,      394, 0x1747c0b4
0,       4032,       4032,     1024,      397, 0xaa38c316
0,       5056,       5056,     1024,      381, 0x8d7bb92e
0,       6080,       6080,     1024,      373, 0x3da3b943
0,       7104,       7104,     1024,      401, 0xa378c736
0,       8128,       8128,     1024,      388, 0xa402bec2
0,       9152,       9152,     1024,      390, 0xb2c3bf80
0,      10176,      10176,     1024,      382, 0x3f56b53c
0,      11200,      11200,     1024,      409, 0xb4c7bc3e
0,      12224,      12224,     1024,      386, 0xc081b48f
0,      13248,      13248,     1024,      381, 0xb3adb66c
0,      14272,      14272,     1024,      390, 0x9300b8f8
0,      15296,      15296,     1024,      420, 0x3aa8c3c6
0,      16320,      16320,     1024,      399, 0xd31bbf5a
0,      17344,      17344,     1024,      373, 0xdd02b65d
0,      18368,      18368,     1024,      377, 0x2de1b35b
0,      19392,      19392,     1024,      404, 0xe631bd94
0,      20416,      20416,     1024,      380, 0x58a7af1a
0,      21440,      21440,     1024,      396, 0x8bfcbf62
0,      22464,      22464,     1024,      386, 0xc5cfbca8
0,      23488,      23488,     1024,      426, 0x44b0cf2e
0,      24512,      24512,     1024,      369, 0xa449b35e
0,      25536,      25536,     1024,      395, 0x7e44bc4f
0,      26560,      26560,     1024,      398, 0x27f1c78f
0,      27584,      27584,     1024,      379, 0x1e1bb231
0,      28608,      28608,     1024,      382, 0x7b6ac3a2
0,      29632,      29632,     1024,      379, 0x6f27b61a
0,      30656,      30656,     1024,      378, 0x3fb9abd2
0,      31680,      31680,     1024,      384, 0x6f81c000
0,      32704,      32704,     1024,      372, 0x2f62b465
0,      33728,      33728,     1024,      400, 0x41c7cb43
0,      34752,      34752,     1024,      399, 0x36d5c1f0
0,      35776,      35776,     1024,      405, 0x09f0caf2
0,      36800,      36800,     1024,      380, 0x5e00bc5d
0,      37824,      37824,     1024,      381, 0xbeceb1bf
0,      38848,      38848,     1024,      402, 0xd8bbc2ce
0,      39872,      39872,     1024,      377, 0x9dcab00a
0,      40896,      40896,     1024,      401, 0xfaa5c530
0,      41920,      41920,     1024,      397, 0xac2ad16b
0,      42944,      42944,     1024,      418, 0x950dccfb
0,      43968,      43968,     1024,      380, 0xc6bfb866
0,      44992,      44992,     1024,      424, 0x933dd5d5
0,      46016,      46016,     1024,      398, 0xe8b0c343
0,      47040,      47040,     1024,      377, 0xb58bb22c
0,      48064,      48064,     1024,      380, 0x7bcaba5f
0,      49088,      49088,     1024,      396, 0xb707bd54
0,      50112,      50112,     1024,      410, 0xdbfdbeb4
0,      51136,      51136,     1024,      385, 0xf0adb8c9
0,      52160,      52160,     1024,      391, 0x9f45bbbd
0,      53184,      53184,     1024,      431, 0x6b0ddacb
0,      54208,      54208,     1024,      389, 0x9160bab0
0,      55232,      55232,     1024,      397, 0xca1ec53d
0,      56256,      56256,     1024,      364, 0x5e05b178
0,      57280,      57280,     1024,      422, 0x40fcd34b
0,      58304,      58304,     1024,      377, 0x7553ae19
0,      59328,      59328,     1024,      389, 0xfd36b266
0,      60352,      60352,     1024,      389, 0x93b3b629
0,      61376,      61376,     1024,      414, 0x9717c57c
0,      62400,      62400,     1024,      383, 0xe00ebad1
0,      63424,      63424,     1024,      403, 0xdda0c451
0,      64448,      64448,     1024,      355, 0x238eb362
0,      65472,      65472,     1024,      460, 0x42d5d784
0,      66496,      66496,     1024,      392, 0xff1ed499
0,      67520,      67520,     1024,      354, 0x5e88a34b
0,      68544,      68544,     1024,      370, 0x4637ae99
0,      69568,      69568,     1024,      360, 0xea53b949
0,      70592,      70592,     1024,      360, 0x2932b101
0,      71616,      71616,     1024,      372, 0x6b42b33e
0,      72640,      72640,     1024,      364, 0x836cafb6
0,      73664,      73664,     1024,      372, 0xdbecb179
0,      74688,      74688,     1024,      353, 0x4437a438
0,      75712,      75712,     1024,      370, 0xc5c3b94d
0,      76736,      76736,     1024,      369, 0xa255a71c
0,      77760,      77760,     1024,      355, 0x3e78a40d
0,      78784,      78784,     1024,      330, 0x8c6ca32e
0,      79808,      79808,     1024,      363, 0x025fbbae
0,      80832,      80832,     1024,      382, 0x681cbe48
0,      81856,      81856,     1024,      349, 0x736ca16b
0,      82880,      82880,     1024,      372, 0xcee4aecb
0,      83904,      83904,     1024,      373, 0x7351b1d3
0,      84928,      84928,     1024,      318, 0x78509b6b
0,      85952,      85952,     1024,      339, 0xbc4ba49f
0,      86976,      86976,     1024,      354, 0x8b39adb1
0,      88000,      88000,     1024,      354, 0xb0e7b54b
0,      89024,      89024,     1024,      333, 0xfc44a1fa
0,      90048,      90048,     1024,      326, 0x024a999e
0,      91072,      91072,     1024,      358, 0xe653b9a2
0,      92096,      92096,     1024,      363, 0xf84dae44
0,      93120,      93120,     1024,      339, 0x39249c25
0,      94144,      94144,     1024,      366, 0xb1d8b4eb
0,      95168,      95168,     1024,      370, 0x4542af29
0,      96192,      96192,     1024,      347, 0xe86a9f1a
0,      97216,      97216,     1024,      336, 0x44eb9b70
0,      98240,      98240,     1024,      362, 0xdb1eaddc
0,      99264,      99264,     1024,      370, 0xbe00a8b6
0,     100288,     100288,     1024,      350, 0x117ab23a
0,     101312,     101312,     1024,      322, 0x6815a0c1
0,     102336,     102336,     1024,      363, 0xf0a6b0da
0,     103360,     103360,     1024,      365, 0x95bca669
0,     104384,     104384,     1024,      349, 0xfbc8a758
0,     105408,     105408,     1024,      350, 0x27f5a981
0,     106432,     106432,     1024,      382, 0x3a96b3c4
0,     107456,     107456,     1024,      354, 0xee55acf2
0,     108480,     108480,     1024,      374, 0x72e8a5db
0,     109504,     109504,     1024,      342, 0x0649af5c
0,     110528,     110528,     1024,      364, 0x176aaa28
0,     111552,     111552,     1024,      341, 0xb2359d14
0,     112576,     112576,     1024,      382, 0xf808c743
0,     113600,     113600,     1024,      327, 0xdee59a63
0,     114624,     114624,     1024,      370, 0xb256b680
0,     115648,     115648,     1024,      338, 0x91219c4b
0,     116672,     116672,     1024,      363, 0x44b1a531
0,     117696,     117696,     1024,      321, 0xbb599a74
0,     118720,     118720,     1024,      309, 0x3ec7907d
0,     119744,     119744,     1024,      319, 0x69f39746
0,     120768,     120768,     1024,      327, 0x11a29c0d
0,     121792,     121792,     1024,      316, 0x045997e5
0,     122816,     122816,     1024,      343, 0x0f5ba6e7
0,     123840,     123840,     1024,      351, 0xf7d5b3aa
0,     124864,     124864,     1024,      340, 0x68ebafcf
0,     125888,     125888,     1024,      318, 0x968f8c9a
0,     126912,     126912,     1024,      319, 0x249498e7
0,     127936,     127936,     1024,      338, 0x445caf9c
0,     128960,     128960,     1024,      356, 0x3d87ac95
0,     129984,     129984,     1024,      347, 0x56e5a176
0,     131008,     131008,     1024,      312, 0xba1d8c5d
0,     132032,     132032,     1024,      302, 0xff5a8e1e
0,     133056,     133056,     1024,      340, 0x71dda0c3
0,     134080,     134080,     1024,      311, 0x071d8d3c
0,     135104,     135104,     1024,      318, 0xee9f986f
0,     136128,     136128,     1024,      313, 0x3351927b
0,     137152,     137152,     1024,      320, 0xa12f962e
0,     138176,     138176,     1024,      294, 0xe2308a4b
0,     139200,     139200,     1024,      278, 0xd915864f
0,     140224,     140224,     1024,      338, 0x047e9c41
0,     141248,     141248,     1024,      273, 0x04697881
0,     142272,     142272,     1024,      262, 0xed727c4b
0,     143296,     143296,     1024,      327, 0x7a1b967e
0,     144320,     144320,     1024,      356, 0xd67fabb4
0,     145344,     145344,     1024,      344, 0x3562a9cb
0,     146368,     146368,     1024,      342, 0x7f9aa774
0,     147392,     147392,     1024,      326, 0x12549b2a
0,     148416,     148416,     1024,      373, 0x7434b4ff
0,     149440,     149440,     1024,      311, 0x6f1792d4
0,     150464,     150464,     1024,      280, 0xd980895e
0,     151488,     151488,     1024,      317, 0x8c409393
0,     152512,     152512,     1024,      334, 0x4deba53e
0,     153536,     153536,     1024,      355, 0x049faf98
0,     154560,     154560,     1024,      343, 0xe38a9fc7
0,     155584,     155584,     1024,      326, 0xea159e0a
0,     156608,     156608,     1024,      338, 0xdeb79d5c
0,     157632,     157632,     1024,      316, 0x98bd999e
0,     158656,     158656,     1024,      331, 0x9f7da7c6
0,     159680,     159680,     1024,      348, 0xea2ea626
0,     160704,     160704,     1024,      343, 0x064ba930
0,     161728,     161728,     1024,      337, 0x8c959a1c
0,     162752,     162752,     1024,      325, 0x5bb4a256
0,     163776,     163776,     1024,      329, 0x512793a9
0,     164800,     164800,     1024,      323, 0x7fc7904f
0,     165824,     165824,     1024,      321, 0x5d638da4
0,     166848,     166848,     1024,      306, 0x47858d20
0,     167872,     167872,     1024,      308, 0x374a8c89
0,     168896,     168896,     1024,      283, 0x9f258b1c
0,     169920,     169920,     1024,      312, 0xa59b9619
0,     170944,     170944,     1024,      321, 0x82ee98dc
0,     171968,     171968,     1024,      293, 0xf22d8131
0,     172992,     172992,     1024,      310, 0x3a5f8fc8
0,     174016,     174016,     1024,      336, 0x7f26a0ce
0,     175040,     175040,     1024,      289, 0xda498221
0,     176064,     176064,     1024,      331, 0xb9948f28
0,     177088,     177088,     1024,      330, 0x412a919d
0,     178112,     178112,     1024,      329, 0x015fa47b
0,     179136,     179136,     1024,      316, 0x3a32933b
0,     180160,     180160,     1024,      325, 0x0c64aeaa
0,     181184,     181184,     1024,      325, 0x959d972a
0,     182208,     182208,     1024,      307, 0xa08d91a8
0,     183232,     183232,     1024,      280, 0xc313827f
0,     184256,     184256,     1024,      330, 0x0fc29bbb
0,     185280,     185280,     1024,      313, 0x91b098eb
0,     186304,     186304,     1024,      286, 0x704c7b35
0,     187328,     187328,     1024,      315, 0x8268988e
0,     188352,     188352,     1024,      338, 0x67719fec
0,     189376,     189376,     1024,      302, 0xe8e390a3
0,     190400,     190400,     1024,      320, 0x98e79cd9
0,     191424,     191424,     1024,      321, 0x01c791a8
0,     192448,     192448,     1024,      285, 0xe12289cc
0,     193472,     193472,     1024,      295, 0x5c2a934e
0,     194496,     194496,     1024,      285, 0xd2c283bd
0,     195520,     195520,     1024,      296, 0x21ab912d
0,     196544,     196544,     1024,      288, 0xdbb18fa4
0,     197568,     197568,     1024,      272, 0x662681d2
0,     198592,     198592,     1024,      332, 0x0549a6df
0,     199616,     199616,     1024,      280, 0xbea978ac
0,     200640,     200640,     1024,      307, 0x4fa09413
0,     201664,     201664,     1024,      283, 0x63fa7bda
0,     202688,     202688,     1024,      298, 0x3a6b8b43
0,     203712,     203712,     1024,      325, 0x3a83a794
0,     204736,     204736,     1024,      343, 0xc364a9db
0,     205760,     205760,     1024,      323, 0x92f78d66
0,     206784,     206784,     1024,      339, 0x1aafa308
0,     207808,     207808,     1024,      301, 0xa56f926a
0,     208832,     208832,     1024,      316, 0xa5329255
0,     209856,     209856,     1024,      298, 0xff3c8cfc
0,     210880,     210880,     1024,      321, 0x8bd098e6
0,     211904,     211904,     1024,      306, 0x5f8898b3
0,     212928,     212928,     1024,      329, 0xba59a174
0,     213952,     213952,     1024,      311, 0x509d8da5
0,     214976,     214976,     1024,      339, 0xe62cada3
0,     216000,     216000,     1024,      318, 0x072f8f01
0,     217024,     217024,     1024,      308, 0xb8ca8bf7
0,     218048,     218048,     1024,      279, 0xbc978182
0,     219072,     219072,     1024,      313, 0x8ccb9499
0,     220096,     220096,     1024,      322, 0xbb129573
0,     221120,     221120,     1024,      321, 0xc6b4965d
0,     222144,     222144,     1024,      332, 0x36909152
0,     223168,     223168,     1024,      339, 0xf8ba9f5c
0,     224192,     224192,     1024,      322, 0x0f3d9187
0,     225216,     225216,     1024,      299, 0x21977f63
0,     226240,     226240,     1024,      300, 0x157987ca
0,     227264,     227264,     1024,      313, 0x24438bbf
0,     228288,     228288,     1024,      295, 0x32cf85e7
0,     229312,     229312,     1024,      352, 0x8277acef
0,     230336,     230336,     1024,      329, 0x7b8a9850
0,     231360,     231360,     1024,      340, 0xc3bfa569
0,     232384,     232384,     1024,      326, 0x49f19c47
0,     233408,     233408,     1024,      350, 0x8aeda71a
0,     234432,     234432,     1024,      285, 0xcf7e8acb
0,     235456,     235456,     1024,      306, 0x886f8b7f
0,     236480,     236480,     1024,      261, 0xf9e97980
0,     237504,     237504,     1024,      336, 0x545da913
0,     238528,     238528,     1024,      325, 0x840298da
0,     239552,     239552,     1024,      245, 0xec426b62, S=1, Skip Samples,       10, 0x018a0042
